<svg xmlns="http://www.w3.org/2000/svg" xmlns:xlink="http://www.w3.org/1999/xlink" width="1440" height="594" viewBox="0 0 1440 594"><defs><linearGradient id="a" x1="0.5" x2="0.5" y2="1" gradientUnits="objectBoundingBox"><stop offset="0" stop-color="#fe064c"/><stop offset="1" stop-color="#f282a2"/></linearGradient><linearGradient id="b" x1="0.5" x2="0.5" y2="0.946" gradientUnits="objectBoundingBox"><stop offset="0" stop-color="#b447e1"/><stop offset="1" stop-color="#a96ec3"/></linearGradient><linearGradient id="c" x1="0.5" x2="0.5" y2="1" gradientUnits="objectBoundingBox"><stop offset="0" stop-color="#fce900"/><stop offset="1" stop-color="#fdab01"/></linearGradient><clipPath id="k"><rect width="1440" height="594"/></clipPath></defs><g id="j" clip-path="url(#k)"><rect width="1440" height="594" fill="#fff"/><rect width="1440" height="594" fill="url(#a)"/><path d="M1129.667,0s5.068,195.513-99.92,254.581S915.525,271.018,810.661,356.755s-113,236.318-113,236.318H1917.8V0Z" transform="translate(-166)" fill="url(#b)"/><g transform="translate(-352 -99)"><g transform="translate(93 -13)"><g transform="translate(1010 159)" fill="url(#c)"><path d="M365,0C566.584,0,730,163.416,730,365S566.584,730,365,730,0,566.584,0,365,163.416,0,365,0Z" stroke="none"/><path d="M 365 4 C 352.6841125488281 4 340.2640991210938 4.6270751953125 328.0849914550781 5.864013671875 C 316.0834045410156 7.08282470703125 304.0239868164062 8.92327880859375 292.24169921875 11.33428955078125 C 269.0653076171875 16.076904296875 246.2681884765625 23.15350341796875 224.4837951660156 32.36749267578125 C 203.0938720703125 41.4146728515625 182.4630126953125 52.61279296875 163.164306640625 65.65081787109375 C 144.0477905273438 78.56561279296875 126.0714721679688 93.39752197265625 109.7344970703125 109.7344970703125 C 93.39752197265625 126.0714721679688 78.56561279296875 144.0477905273438 65.65081787109375 163.164306640625 C 52.61279296875 182.4630126953125 41.4146728515625 203.0938720703125 32.36749267578125 224.4837951660156 C 23.15350341796875 246.2681884765625 16.076904296875 269.0653076171875 11.33428955078125 292.24169921875 C 8.92327880859375 304.0239868164062 7.08282470703125 316.0834045410156 5.864013671875 328.0849914550781 C 4.6270751953125 340.2640991210938 4 352.6841125488281 4 365 C 4 377.3158874511719 4.6270751953125 389.7359008789062 5.864013671875 401.9150085449219 C 7.08282470703125 413.9165954589844 8.92327880859375 425.9760131835938 11.33428955078125 437.75830078125 C 16.076904296875 460.9346923828125 23.15350341796875 483.7318115234375 32.36749267578125 505.5162048339844 C 41.4146728515625 526.9061279296875 52.61279296875 547.5369873046875 65.65081787109375 566.835693359375 C 78.56561279296875 585.9522094726562 93.39752197265625 603.928466796875 109.7344970703125 620.2655029296875 C 126.0714721679688 636.6024780273438 144.0477905273438 651.4343872070312 163.164306640625 664.3491821289062 C 182.4630126953125 677.38720703125 203.0938720703125 688.5853271484375 224.4837951660156 697.6325073242188 C 246.2681884765625 706.8464965820312 269.0653076171875 713.923095703125 292.24169921875 718.6657104492188 C 304.0239868164062 721.0767211914062 316.0834045410156 722.9171752929688 328.0849914550781 724.135986328125 C 340.2640991210938 725.3729248046875 352.6841125488281 726 365 726 C 377.3158874511719 726 389.7359008789062 725.3729248046875 401.9150085449219 724.135986328125 C 413.9165954589844 722.9171752929688 425.9760131835938 721.0767211914062 437.75830078125 718.6657104492188 C 460.9346923828125 713.923095703125 483.7318115234375 706.8464965820312 505.5162048339844 697.6325073242188 C 526.9061279296875 688.5853271484375 547.5369873046875 677.38720703125 566.835693359375 664.3491821289062 C 585.9522094726562 651.4343872070312 603.928466796875 636.6024780273438 620.2655029296875 620.2655029296875 C 636.6024780273438 603.928466796875 651.4343872070312 585.9522094726562 664.3491821289062 566.835693359375 C 677.38720703125 547.5369873046875 688.5853271484375 526.9061279296875 697.6325073242188 505.5162048339844 C 706.8464965820312 483.7318115234375 713.923095703125 460.9346923828125 718.6657104492188 437.75830078125 C 721.0767211914062 425.9760131835938 722.9171752929688 413.9165954589844 724.135986328125 401.9150085449219 C 725.3729248046875 389.7359008789062 726 377.3158874511719 726 365 C 726 352.6841125488281 725.3729248046875 340.2640991210938 724.135986328125 328.0849914550781 C 722.9171752929688 316.0834045410156 721.0767211914062 304.0239868164062 718.6657104492188 292.24169921875 C 713.923095703125 269.0653076171875 706.8464965820312 246.2681884765625 697.6325073242188 224.4837951660156 C 688.5853271484375 203.0938720703125 677.38720703125 182.4630126953125 664.3491821289062 163.164306640625 C 651.4343872070312 144.0477905273438 636.6024780273438 126.0714721679688 620.2655029296875 109.7344970703125 C 603.928466796875 93.39752197265625 585.9522094726562 78.56561279296875 566.835693359375 65.65081787109375 C 547.5369873046875 52.61279296875 526.9061279296875 41.4146728515625 505.5162048339844 32.36749267578125 C 483.7318115234375 23.15350341796875 460.9346923828125 16.076904296875 437.75830078125 11.33428955078125 C 425.9760131835938 8.92327880859375 413.9165954589844 7.08282470703125 401.9150085449219 5.864013671875 C 389.7359008789062 4.6270751953125 377.3158874511719 4 365 4 M 365 0 C 566.5838623046875 0 730 163.4160766601562 730 365 C 730 566.5838623046875 566.5838623046875 730 365 730 C 163.4160766601562 730 0 566.5838623046875 0 365 C 0 163.4160766601562 163.4160766601562 0 365 0 Z" stroke="none" fill="rgba(231,77,49,0.06)"/></g><g transform="translate(1060 209)" fill="url(#c)"><path d="M315,0C488.97,0,630,141.03,630,315S488.97,630,315,630,0,488.97,0,315,141.03,0,315,0Z" stroke="none"/><path d="M 315 4 C 293.8964233398438 4 272.8073425292969 6.1258544921875 252.3184204101562 10.3184814453125 C 232.3523254394531 14.4041748046875 212.7130126953125 20.50048828125 193.9460144042969 28.438232421875 C 175.5188293457031 36.23236083984375 157.7455139160156 45.87939453125 141.1197509765625 57.111572265625 C 124.6509094238281 68.2376708984375 109.1641845703125 81.01544189453125 95.08984375 95.08984375 C 81.01544189453125 109.1641845703125 68.2376708984375 124.6509094238281 57.111572265625 141.1197509765625 C 45.87939453125 157.7455139160156 36.23236083984375 175.5188293457031 28.438232421875 193.9460144042969 C 20.50048828125 212.7130126953125 14.4041748046875 232.3523254394531 10.3184814453125 252.3184204101562 C 6.1258544921875 272.8073425292969 4 293.8964233398438 4 315 C 4 336.1035766601562 6.1258544921875 357.1926574707031 10.3184814453125 377.6815795898438 C 14.4041748046875 397.6476440429688 20.50048828125 417.2869873046875 28.438232421875 436.0540161132812 C 36.23236083984375 454.4811706542969 45.87939453125 472.2545166015625 57.111572265625 488.8802490234375 C 68.2376708984375 505.3490905761719 81.01544189453125 520.8358154296875 95.08984375 534.91015625 C 109.1641845703125 548.9845581054688 124.6509094238281 561.7623291015625 141.1197509765625 572.888427734375 C 157.7455139160156 584.12060546875 175.5188293457031 593.7676391601562 193.9460144042969 601.561767578125 C 212.7130126953125 609.49951171875 232.3523254394531 615.5958251953125 252.3184204101562 619.6815185546875 C 272.8073425292969 623.8741455078125 293.8964233398438 626 315 626 C 336.1035766601562 626 357.1926574707031 623.8741455078125 377.6815795898438 619.6815185546875 C 397.6476440429688 615.5958251953125 417.2869873046875 609.49951171875 436.0540161132812 601.561767578125 C 454.4811706542969 593.7676391601562 472.2545166015625 584.12060546875 488.8802490234375 572.888427734375 C 505.3490905761719 561.7623291015625 520.8358154296875 548.9845581054688 534.91015625 534.91015625 C 548.9845581054688 520.8358154296875 561.7623291015625 505.3490905761719 572.888427734375 488.8802490234375 C 584.12060546875 472.2545166015625 593.7676391601562 454.4811706542969 601.561767578125 436.0540161132812 C 609.49951171875 417.2869873046875 615.5958251953125 397.6476440429688 619.6815185546875 377.6815795898438 C 623.8741455078125 357.1926574707031 626 336.1035766601562 626 315 C 626 293.8964233398438 623.8741455078125 272.8073425292969 619.6815185546875 252.3184204101562 C 615.5958251953125 232.3523254394531 609.49951171875 212.7130126953125 601.561767578125 193.9460144042969 C 593.7676391601562 175.5188293457031 584.12060546875 157.7455139160156 572.888427734375 141.1197509765625 C 561.7623291015625 124.6509094238281 548.9845581054688 109.1641845703125 534.91015625 95.08984375 C 520.8358154296875 81.01544189453125 505.3490905761719 68.2376708984375 488.8802490234375 57.111572265625 C 472.2545166015625 45.87939453125 454.4811706542969 36.23236083984375 436.0540161132812 28.438232421875 C 417.2869873046875 20.50048828125 397.6476440429688 14.4041748046875 377.6815795898438 10.3184814453125 C 357.1926574707031 6.1258544921875 336.1035766601562 4 315 4 M 315 0 C 488.9696655273438 0 630 141.0303344726562 630 315 C 630 488.9696655273438 488.9696655273438 630 315 630 C 141.0303344726562 630 0 488.9696655273438 0 315 C 0 141.0303344726562 141.0303344726562 0 315 0 Z" stroke="none" fill="rgba(231,77,49,0.06)"/></g><g transform="translate(1109 259)" fill="url(#c)"><path d="M265,0C411.355,0,530,118.645,530,265S411.355,530,265,530,0,411.355,0,265,118.645,0,265,0Z" stroke="none"/><path d="M 265 4 C 247.2888488769531 4 229.5899963378906 5.7840576171875 212.3951416015625 9.30267333984375 C 195.6392822265625 12.73138427734375 179.15771484375 17.84759521484375 163.408203125 24.50900268554688 C 147.9437866210938 31.0499267578125 133.0280151367188 39.14599609375 119.0752258300781 48.57229614257812 C 105.2539367675781 57.9097900390625 92.25686645507812 68.63336181640625 80.44512939453125 80.44512939453125 C 68.63336181640625 92.25686645507812 57.9097900390625 105.2539367675781 48.57229614257812 119.0752258300781 C 39.14599609375 133.0280151367188 31.0499267578125 147.9437866210938 24.50900268554688 163.408203125 C 17.84759521484375 179.15771484375 12.73138427734375 195.6392822265625 9.30267333984375 212.3951416015625 C 5.7840576171875 229.5899963378906 4 247.2888488769531 4 265 C 4 282.7111206054688 5.7840576171875 300.409912109375 9.30267333984375 317.6048583984375 C 12.73138427734375 334.3606567382812 17.84759521484375 350.84228515625 24.50900268554688 366.5917358398438 C 31.0499267578125 382.0562133789062 39.14599609375 396.9719848632812 48.57229614257812 410.9248046875 C 57.9097900390625 424.7460632324219 68.63336181640625 437.7430725097656 80.44512939453125 449.5548706054688 C 92.25692749023438 461.3666381835938 105.2539367675781 472.0902099609375 119.0752258300781 481.4276428222656 C 133.0280151367188 490.85400390625 147.9437866210938 498.9500732421875 163.408203125 505.4909973144531 C 179.15771484375 512.1524047851562 195.6392822265625 517.2685546875 212.3951416015625 520.6973876953125 C 229.5899963378906 524.2159423828125 247.2888488769531 526 265 526 C 282.7111206054688 526 300.409912109375 524.2159423828125 317.6048583984375 520.6973876953125 C 334.3606567382812 517.2685546875 350.84228515625 512.1524047851562 366.5917358398438 505.4909973144531 C 382.0562133789062 498.9500732421875 396.9719848632812 490.85400390625 410.9248046875 481.4276428222656 C 424.7460632324219 472.0902099609375 437.7430725097656 461.3666381835938 449.5548706054688 449.5548706054688 C 461.3666381835938 437.7430725097656 472.0902099609375 424.7460632324219 481.4276428222656 410.9248046875 C 490.85400390625 396.9719848632812 498.9500732421875 382.0562133789062 505.4909973144531 366.5917358398438 C 512.1524047851562 350.84228515625 517.2685546875 334.3606567382812 520.6973876953125 317.6048583984375 C 524.2159423828125 300.409912109375 526 282.7111206054688 526 265 C 526 247.2888488769531 524.2159423828125 229.5899963378906 520.6973876953125 212.3951416015625 C 517.2685546875 195.6392822265625 512.1524047851562 179.15771484375 505.4909973144531 163.408203125 C 498.9500732421875 147.9437866210938 490.85400390625 133.0280151367188 481.4276428222656 119.0752258300781 C 472.0902099609375 105.2539367675781 461.3666381835938 92.25692749023438 449.5548706054688 80.44512939453125 C 437.7430725097656 68.63336181640625 424.7460632324219 57.9097900390625 410.9248046875 48.57229614257812 C 396.9719848632812 39.14599609375 382.0562133789062 31.0499267578125 366.5917358398438 24.50900268554688 C 350.84228515625 17.84759521484375 334.3606567382812 12.73138427734375 317.6048583984375 9.30267333984375 C 300.409912109375 5.7840576171875 282.7111206054688 4 265 4 M 265 0 C 411.3554382324219 0 530 118.6445007324219 530 265 C 530 411.3554382324219 411.3554382324219 530 265 530 C 118.6445007324219 530 0 411.3554382324219 0 265 C 0 118.6445007324219 118.6445007324219 0 265 0 Z" stroke="none" fill="rgba(231,77,49,0.06)"/></g><g transform="translate(1159 309)" fill="url(#c)"><path d="M215,0C333.741,0,430,96.259,430,215S333.741,430,215,430,0,333.741,0,215,96.259,0,215,0Z" stroke="none"/><path d="M 215 4 C 200.6812896728516 4 186.3727722167969 5.442291259765625 172.4718933105469 8.286834716796875 C 158.9263610839844 11.05865478515625 145.6025390625 15.194580078125 132.8704833984375 20.57977294921875 C 120.3687744140625 25.86758422851562 108.3104858398438 32.41265869140625 97.0306396484375 40.03311157226562 C 85.85699462890625 47.58187866210938 75.34963989257812 56.25128173828125 65.80047607421875 65.80047607421875 C 56.25128173828125 75.34963989257812 47.58187866210938 85.85699462890625 40.03311157226562 97.0306396484375 C 32.41265869140625 108.3104858398438 25.86758422851562 120.3687744140625 20.57977294921875 132.8704833984375 C 15.194580078125 145.6025390625 11.05865478515625 158.9263610839844 8.286834716796875 172.4718933105469 C 5.442291259765625 186.3727722167969 4 200.6812896728516 4 215 C 4 229.3187103271484 5.442291259765625 243.6272277832031 8.286834716796875 257.5281372070312 C 11.05865478515625 271.0736694335938 15.194580078125 284.3974609375 20.57977294921875 297.1295166015625 C 25.86758422851562 309.6312255859375 32.41265869140625 321.6895141601562 40.03311157226562 332.9693603515625 C 47.58187866210938 344.1430053710938 56.25128173828125 354.6503601074219 65.80047607421875 364.1995239257812 C 75.34963989257812 373.7487182617188 85.85699462890625 382.4181213378906 97.0306396484375 389.9668884277344 C 108.3104858398438 397.5873413085938 120.3687744140625 404.1324157714844 132.8704833984375 409.4202270507812 C 145.6025390625 414.805419921875 158.9263610839844 418.9413452148438 172.4718933105469 421.7131652832031 C 186.3727722167969 424.5577087402344 200.6812896728516 426 215 426 C 229.3187103271484 426 243.6272277832031 424.5577087402344 257.5281372070312 421.7131652832031 C 271.0736694335938 418.9413452148438 284.3974609375 414.805419921875 297.1295166015625 409.4202270507812 C 309.6312255859375 404.1324157714844 321.6895141601562 397.5873413085938 332.9693603515625 389.9668884277344 C 344.1430053710938 382.4181213378906 354.6503601074219 373.7487182617188 364.1995239257812 364.1995239257812 C 373.7487182617188 354.6503601074219 382.4181213378906 344.1430053710938 389.9668884277344 332.9693603515625 C 397.5873413085938 321.6895141601562 404.1324157714844 309.6312255859375 409.4202270507812 297.1295166015625 C 414.805419921875 284.3974609375 418.9413452148438 271.0736694335938 421.7131652832031 257.5281372070312 C 424.5577087402344 243.6272277832031 426 229.3187103271484 426 215 C 426 200.6812896728516 424.5577087402344 186.3727722167969 421.7131652832031 172.4718933105469 C 418.9413452148438 158.9263610839844 414.805419921875 145.6025390625 409.4202270507812 132.8704833984375 C 404.1324157714844 120.3687744140625 397.5873413085938 108.3104858398438 389.9668884277344 97.0306396484375 C 382.4181213378906 85.85699462890625 373.7487182617188 75.34963989257812 364.1995239257812 65.80047607421875 C 354.6503601074219 56.25128173828125 344.1430053710938 47.58187866210938 332.9693603515625 40.03311157226562 C 321.6895141601562 32.41265869140625 309.6312255859375 25.86758422851562 297.1295166015625 20.57977294921875 C 284.3974609375 15.194580078125 271.0736694335938 11.05865478515625 257.5281372070312 8.286834716796875 C 243.6272277832031 5.442291259765625 229.3187103271484 4 215 4 M 215 0 C 333.7412414550781 0 430 96.25875854492188 430 215 C 430 333.7412414550781 333.7412414550781 430 215 430 C 96.25875854492188 430 0 333.7412414550781 0 215 C 0 96.25875854492188 96.25875854492188 0 215 0 Z" stroke="none" fill="rgba(231,77,49,0.06)"/></g><g transform="translate(1210 359)" fill="url(#c)"><path d="M165,0A165,165,0,1,1,0,165,165,165,0,0,1,165,0Z" stroke="none"/><path d="M 165 4 C 154.07373046875 4 143.1555480957031 5.100555419921875 132.5486297607422 7.27099609375 C 122.2133636474609 9.385894775390625 112.0472717285156 12.5416259765625 102.3327789306641 16.65054321289062 C 92.79368591308594 20.68524169921875 83.59300231933594 25.67922973632812 74.98612976074219 31.493896484375 C 66.46005249023438 37.25399780273438 58.44235229492188 43.86923217773438 51.15582275390625 51.15582275390625 C 43.86923217773438 58.44235229492188 37.25399780273438 66.46005249023438 31.493896484375 74.98612976074219 C 25.67922973632812 83.59300231933594 20.68524169921875 92.79368591308594 16.65054321289062 102.3327789306641 C 12.5416259765625 112.0472717285156 9.385894775390625 122.2133636474609 7.27099609375 132.5486297607422 C 5.100555419921875 143.1555480957031 4 154.07373046875 4 165 C 4 175.92626953125 5.100555419921875 186.8444519042969 7.27099609375 197.4513702392578 C 9.385894775390625 207.7866363525391 12.5416259765625 217.9527282714844 16.65054321289062 227.667236328125 C 20.68524169921875 237.2063293457031 25.67922973632812 246.4069976806641 31.493896484375 255.0138549804688 C 37.25399780273438 263.5399475097656 43.86923217773438 271.5576477050781 51.15582275390625 278.8441772460938 C 58.44235229492188 286.1307678222656 66.46005249023438 292.7460021972656 74.98612976074219 298.506103515625 C 83.59300231933594 304.3207702636719 92.79368591308594 309.3147583007812 102.3327789306641 313.3494567871094 C 112.0472717285156 317.4583740234375 122.2133636474609 320.6141052246094 132.5486297607422 322.72900390625 C 143.1555480957031 324.8994445800781 154.07373046875 326 165 326 C 175.92626953125 326 186.8444519042969 324.8994445800781 197.4513702392578 322.72900390625 C 207.7866363525391 320.6141052246094 217.9527282714844 317.4583740234375 227.667236328125 313.3494567871094 C 237.2063293457031 309.3147583007812 246.4069976806641 304.3207702636719 255.0138549804688 298.506103515625 C 263.5399475097656 292.7460021972656 271.5576477050781 286.1307678222656 278.8441772460938 278.8441772460938 C 286.1307678222656 271.5576477050781 292.7460021972656 263.5399475097656 298.506103515625 255.0138549804688 C 304.3207702636719 246.4069976806641 309.3147583007812 237.2063293457031 313.3494567871094 227.667236328125 C 317.4583740234375 217.9527282714844 320.6141052246094 207.7866363525391 322.72900390625 197.4513702392578 C 324.8994445800781 186.8444519042969 326 175.92626953125 326 165 C 326 154.07373046875 324.8994445800781 143.1555480957031 322.72900390625 132.5486297607422 C 320.6141052246094 122.2133636474609 317.4583740234375 112.0472717285156 313.3494567871094 102.3327789306641 C 309.3147583007812 92.79368591308594 304.3207702636719 83.59300231933594 298.506103515625 74.98612976074219 C 292.7460021972656 66.46005249023438 286.1307678222656 58.44235229492188 278.8441772460938 51.15582275390625 C 271.5576477050781 43.86923217773438 263.5399475097656 37.25399780273438 255.0138549804688 31.493896484375 C 246.4069976806641 25.67922973632812 237.2063293457031 20.68524169921875 227.667236328125 16.65054321289062 C 217.9527282714844 12.5416259765625 207.7866363525391 9.385894775390625 197.4513702392578 7.27099609375 C 186.8444519042969 5.100555419921875 175.92626953125 4 165 4 M 165 0 C 256.1270141601562 0 330 73.87298583984375 330 165 C 330 256.1270141601562 256.1270141601562 330 165 330 C 73.87298583984375 330 0 256.1270141601562 0 165 C 0 73.87298583984375 73.87298583984375 0 165 0 Z" stroke="none" fill="rgba(231,77,49,0.06)"/></g><g transform="translate(1259 409)" fill="url(#c)"><path d="M115,0A115,115,0,1,1,0,115,115,115,0,0,1,115,0Z" stroke="none"/><path d="M 115 4 C 107.4661636352539 4 99.93826293945312 4.758773803710938 92.62539672851562 6.255203247070312 C 85.50039672851562 7.713165283203125 78.4920654296875 9.888671875 71.79502868652344 12.72129821777344 C 65.21867370605469 15.50283813476562 58.87550354003906 18.94586181640625 52.94163513183594 22.95469665527344 C 47.06314086914062 26.92613220214844 41.53512573242188 31.48716735839844 36.51116943359375 36.51116943359375 C 31.48716735839844 41.53512573242188 26.92613220214844 47.06314086914062 22.95469665527344 52.94163513183594 C 18.94586181640625 58.87550354003906 15.50283813476562 65.21867370605469 12.72129821777344 71.79502868652344 C 9.888671875 78.4920654296875 7.713165283203125 85.50039672851562 6.255203247070312 92.62539672851562 C 4.758773803710938 99.93826293945312 4 107.4661636352539 4 115 C 4 122.5338363647461 4.758773803710938 130.0617370605469 6.255203247070312 137.3746032714844 C 7.713165283203125 144.4996032714844 9.888671875 151.5079345703125 12.72129821777344 158.2049560546875 C 15.50283813476562 164.7813415527344 18.94586181640625 171.1244964599609 22.95469665527344 177.0583648681641 C 26.92613220214844 182.9368591308594 31.48716735839844 188.4648742675781 36.51116943359375 193.4888305664062 C 41.53512573242188 198.5128326416016 47.06314086914062 203.0738677978516 52.94163513183594 207.0453033447266 C 58.87550354003906 211.0541381835938 65.21867370605469 214.4971618652344 71.79502868652344 217.2787017822266 C 78.4920654296875 220.111328125 85.50039672851562 222.2868347167969 92.62539672851562 223.7447967529297 C 99.93826293945312 225.2412261962891 107.4661636352539 226 115 226 C 122.5338363647461 226 130.0617370605469 225.2412261962891 137.3746032714844 223.7447967529297 C 144.4996032714844 222.2868347167969 151.5079345703125 220.111328125 158.2049560546875 217.2787017822266 C 164.7813415527344 214.4971618652344 171.1244964599609 211.0541381835938 177.0583648681641 207.0453033447266 C 182.9368591308594 203.0738677978516 188.4648742675781 198.5128326416016 193.4888305664062 193.4888305664062 C 198.5128326416016 188.4648742675781 203.0738677978516 182.9368591308594 207.0453033447266 177.0583648681641 C 211.0541381835938 171.1244964599609 214.4971618652344 164.7813415527344 217.2787017822266 158.2049560546875 C 220.111328125 151.5079345703125 222.2868347167969 144.4996032714844 223.7447967529297 137.3746032714844 C 225.2412261962891 130.0617370605469 226 122.5338363647461 226 115 C 226 107.4661636352539 225.2412261962891 99.93826293945312 223.7447967529297 92.62539672851562 C 222.2868347167969 85.50039672851562 220.111328125 78.4920654296875 217.2787017822266 71.79502868652344 C 214.4971618652344 65.21867370605469 211.0541381835938 58.87550354003906 207.0453033447266 52.94163513183594 C 203.0738677978516 47.06314086914062 198.5128326416016 41.53512573242188 193.4888305664062 36.51116943359375 C 188.4648742675781 31.48716735839844 182.9368591308594 26.92613220214844 177.0583648681641 22.95469665527344 C 171.1244964599609 18.94586181640625 164.7813415527344 15.50283813476562 158.2049560546875 12.72129821777344 C 151.5079345703125 9.888671875 144.4996032714844 7.713165283203125 137.3746032714844 6.255203247070312 C 130.0617370605469 4.758773803710938 122.5338363647461 4 115 4 M 115 0 C 178.5127258300781 0 230 51.48727416992188 230 115 C 230 178.5127258300781 178.5127258300781 230 115 230 C 51.48727416992188 230 0 178.5127258300781 0 115 C 0 51.48727416992188 51.48727416992188 0 115 0 Z" stroke="none" fill="rgba(231,77,49,0.06)"/></g><g transform="translate(1309 459)" fill="url(#c)"><path d="M65,0A65,65,0,1,1,0,65,65,65,0,0,1,65,0Z" stroke="none"/><path d="M 65 4 C 56.76329803466797 4 48.77507781982422 5.612281799316406 41.25727844238281 8.792037963867188 C 37.64363861083984 10.32048034667969 34.15798187255859 12.21247863769531 30.89711761474609 14.41548156738281 C 27.66619873046875 16.59824371337891 24.62786102294922 19.10511779785156 21.86647796630859 21.86647796630859 C 19.10511779785156 24.62786102294922 16.59824371337891 27.66619873046875 14.41548156738281 30.89711761474609 C 12.21247863769531 34.15798187255859 10.32048034667969 37.64363861083984 8.792037963867188 41.25727844238281 C 5.612281799316406 48.77507781982422 4 56.76329803466797 4 65 C 4 73.2366943359375 5.612281799316406 81.22491455078125 8.792037963867188 88.74272155761719 C 10.32048034667969 92.35636138916016 12.21247863769531 95.84201812744141 14.41548156738281 99.10288238525391 C 16.59824371337891 102.3338012695312 19.10511779785156 105.3721389770508 21.86647796630859 108.1335220336914 C 24.62786102294922 110.8948822021484 27.66619873046875 113.4017639160156 30.89711761474609 115.5845184326172 C 34.15798187255859 117.7875213623047 37.64363861083984 119.6795196533203 41.25727844238281 121.2079620361328 C 48.77507781982422 124.3877182006836 56.76329803466797 126 65 126 C 73.2366943359375 126 81.22491455078125 124.3877182006836 88.74272155761719 121.2079620361328 C 92.35636138916016 119.6795196533203 95.84201812744141 117.7875213623047 99.10288238525391 115.5845184326172 C 102.3338012695312 113.4017639160156 105.3721389770508 110.8948822021484 108.1335220336914 108.1335220336914 C 110.8948822021484 105.3721389770508 113.4017639160156 102.3338012695312 115.5845184326172 99.10288238525391 C 117.7875213623047 95.84201812744141 119.6795196533203 92.35636138916016 121.2079620361328 88.74272155761719 C 124.3877182006836 81.22491455078125 126 73.2366943359375 126 65 C 126 56.76329803466797 124.3877182006836 48.77507781982422 121.2079620361328 41.25727844238281 C 119.6795196533203 37.64363861083984 117.7875213623047 34.15798187255859 115.5845184326172 30.89711761474609 C 113.4017639160156 27.66619873046875 110.8948822021484 24.62786102294922 108.1335220336914 21.86647796630859 C 105.3721389770508 19.10511779785156 102.3338012695312 16.59824371337891 99.10288238525391 14.41548156738281 C 95.84201812744141 12.21247863769531 92.35636138916016 10.32048034667969 88.74272155761719 8.792037963867188 C 81.22491455078125 5.612281799316406 73.2366943359375 4 65 4 M 65 0 C 100.8984985351562 0 130 29.10150146484375 130 65 C 130 100.8984985351562 100.8984985351562 130 65 130 C 29.10150146484375 130 0 100.8984985351562 0 65 C 0 29.10150146484375 29.10150146484375 0 65 0 Z" stroke="none" fill="rgba(231,77,49,0.06)"/></g><g transform="translate(1359 509)" fill="#e74d31"><path d="M 15 28 C 11.52756977081299 28 8.26298999786377 26.64776039123535 5.807610034942627 24.19239044189453 C 3.352240085601807 21.73700904846191 2 18.4724292755127 2 15 C 2 11.52756977081299 3.352240085601807 8.26298999786377 5.807610034942627 5.807610034942627 C 8.26298999786377 3.352240085601807 11.52756977081299 2 15 2 C 18.4724292755127 2 21.73700904846191 3.352240085601807 24.19239044189453 5.807610034942627 C 26.64776039123535 8.26298999786377 28 11.52756977081299 28 15 C 28 18.4724292755127 26.64776039123535 21.73700904846191 24.19239044189453 24.19239044189453 C 21.73700904846191 26.64776039123535 18.4724292755127 28 15 28 Z" stroke="none"/><path d="M 15 4 C 12.06179046630859 4 9.299449920654297 5.144199371337891 7.221830368041992 7.221830368041992 C 5.144199371337891 9.299449920654297 4 12.06179046630859 4 15 C 4 17.93820953369141 5.144199371337891 20.7005500793457 7.221830368041992 22.77816963195801 C 9.299449920654297 24.85580062866211 12.06179046630859 26 15 26 C 17.93820953369141 26 20.7005500793457 24.85580062866211 22.77816963195801 22.77816963195801 C 24.85580062866211 20.7005500793457 26 17.93820953369141 26 15 C 26 12.06179046630859 24.85580062866211 9.299449920654297 22.77816963195801 7.221830368041992 C 20.7005500793457 5.144199371337891 17.93820953369141 4 15 4 M 15 0 C 23.28426933288574 0 30 6.715730667114258 30 15 C 30 23.28426933288574 23.28426933288574 30 15 30 C 6.715730667114258 30 0 23.28426933288574 0 15 C 0 6.715730667114258 6.715730667114258 0 15 0 Z" stroke="none" fill="#e74d31"/></g></g></g><g transform="translate(223.47 129.346) rotate(-33)"><g transform="translate(-19 -55)"><g transform="translate(-400 -654)"><path d="M50,0A50,50,0,1,1,0,50,50,50,0,0,1,50,0Z" transform="translate(732 978)"/><path d="M50,0A50,50,0,1,1,0,50,50,50,0,0,1,50,0Z" transform="translate(732 1105)"/><path d="M0,0H100V120H0Z" transform="translate(732 1028)"/></g><g transform="translate(0 5)"><path d="M0,0H9V82H0Z" transform="translate(350.327 394.191) rotate(-45)" fill="#fff"/><path d="M0,0H9V82H0Z" transform="translate(408.309 387.827) rotate(45)" fill="#fff"/></g><path d="M114.777,164H89.647c-.43-4.639-.647-9.349-.647-14a151.093,151.093,0,0,1,3.047-30.23,149.164,149.164,0,0,1,22.57-53.636,150.45,150.45,0,0,1,66-54.347,149.293,149.293,0,0,1,28.157-8.74,151.465,151.465,0,0,1,60.46,0,149.151,149.151,0,0,1,53.636,22.57,150.428,150.428,0,0,1,54.346,66,149.207,149.207,0,0,1,8.741,28.157A151.1,151.1,0,0,1,389,150c0,4.653-.218,9.363-.647,14H363.224a126.316,126.316,0,0,0-1.763-39.191,124.323,124.323,0,0,0-18.808-44.7,125.376,125.376,0,0,0-55-45.289,124.344,124.344,0,0,0-23.464-7.283,126.207,126.207,0,0,0-50.384,0,124.293,124.293,0,0,0-44.7,18.808,125.379,125.379,0,0,0-45.288,55,124.331,124.331,0,0,0-7.283,23.464A126.317,126.317,0,0,0,114.777,164Z" transform="translate(143 224)"/><path d="M762-671.164V-820.836a74.352,74.352,0,0,1,27.428,7.191,75.166,75.166,0,0,1,11.9,7.141,75.609,75.609,0,0,1,10.332,9.149A74.711,74.711,0,0,1,832-746a74.712,74.712,0,0,1-20.341,51.355,75.616,75.616,0,0,1-10.332,9.149,75.165,75.165,0,0,1-11.9,7.141A74.356,74.356,0,0,1,762-671.165Z" transform="translate(-265 1171)"/><path d="M0,0V149.671a74.352,74.352,0,0,0,27.428-7.191,75.166,75.166,0,0,0,11.9-7.141,75.6,75.6,0,0,0,10.332-9.149A74.711,74.711,0,0,0,70,74.836,74.712,74.712,0,0,0,49.658,23.481a75.616,75.616,0,0,0-10.332-9.149,75.165,75.165,0,0,0-11.9-7.141A74.356,74.356,0,0,0,0,0Z" transform="translate(267 499.835) rotate(180)"/><path d="M0,0H23V159.67H0Z" transform="translate(264 345)"/><path d="M0,0H23V159.67H0Z" transform="translate(477 345)"/></g></g></g></svg>