<svg xmlns="http://www.w3.org/2000/svg" xmlns:xlink="http://www.w3.org/1999/xlink" width="1440" height="402" viewBox="0 0 1440 402"><defs><linearGradient id="a" x1="0.5" x2="0.5" y2="1" gradientUnits="objectBoundingBox"><stop offset="0" stop-color="#fe064c"/><stop offset="1" stop-color="#f282a2"/></linearGradient><linearGradient id="b" x1="0.5" x2="0.5" y2="1" gradientUnits="objectBoundingBox"><stop offset="0" stop-color="#b443df"/><stop offset="1" stop-color="#bababa"/></linearGradient><clipPath id="t"><rect width="1440" height="402"/></clipPath></defs><g id="s" clip-path="url(#t)"><rect width="1440" height="402" fill="#fff"/><rect width="1440" height="482" transform="translate(0 -40)" fill="url(#a)"/><g transform="translate(0 676)"><circle cx="25" cy="25" r="25" transform="translate(629 -368)" fill="url(#b)"/><circle cx="25" cy="25" r="25" transform="translate(777 -521)" fill="url(#b)"/><circle cx="25" cy="25" r="25" transform="translate(962 -385)" fill="url(#b)"/><circle cx="25" cy="25" r="25" transform="translate(1087 -531)" fill="url(#b)"/><circle cx="25" cy="25" r="25" transform="translate(1242 -393)" fill="url(#b)"/><circle cx="25" cy="25" r="25" transform="translate(1332 -573)" fill="url(#b)"/><circle cx="40" cy="40" r="40" transform="translate(802 -335)" fill="url(#b)"/><circle cx="40" cy="40" r="40" transform="translate(629 -506)" fill="url(#b)"/><circle cx="40" cy="40" r="40" transform="translate(496 -335)" fill="url(#b)"/><circle cx="40" cy="40" r="40" transform="translate(1112 -335)" fill="url(#b)"/><circle cx="40" cy="40" r="40" transform="translate(882 -481)" fill="url(#b)"/><circle cx="40" cy="40" r="40" transform="translate(987 -628)" fill="url(#b)"/><circle cx="40" cy="40" r="40" transform="translate(1137 -465)" fill="url(#b)"/><circle cx="40" cy="40" r="40" transform="translate(1342 -466)" fill="url(#b)"/><circle cx="40" cy="40" r="40" transform="translate(1332 -314)" fill="url(#b)"/><circle cx="40" cy="40" r="40" transform="translate(1202 -601)" fill="url(#b)"/><circle cx="40" cy="40" r="40" transform="translate(1342 -681)" fill="url(#b)"/></g><g transform="translate(728 -151)"><g transform="translate(-19 -55)"><g transform="translate(-400 -654)"><path d="M50,0A50,50,0,1,1,0,50,50,50,0,0,1,50,0Z" transform="translate(732 978)"/><path d="M50,0A50,50,0,1,1,0,50,50,50,0,0,1,50,0Z" transform="translate(732 1105)"/><path d="M0,0H100V120H0Z" transform="translate(732 1028)"/></g><g transform="translate(0 5)"><path d="M0,0H9V82H0Z" transform="translate(350.327 394.191) rotate(-45)" fill="#fff"/><path d="M0,0H9V82H0Z" transform="translate(408.309 387.827) rotate(45)" fill="#fff"/></g><path d="M114.777,164H89.647c-.43-4.639-.647-9.349-.647-14a151.093,151.093,0,0,1,3.047-30.23,149.164,149.164,0,0,1,22.57-53.636,150.45,150.45,0,0,1,66-54.347,149.293,149.293,0,0,1,28.157-8.74,151.465,151.465,0,0,1,60.46,0,149.151,149.151,0,0,1,53.636,22.57,150.428,150.428,0,0,1,54.346,66,149.207,149.207,0,0,1,8.741,28.157A151.1,151.1,0,0,1,389,150c0,4.653-.218,9.363-.647,14H363.224a126.316,126.316,0,0,0-1.763-39.191,124.323,124.323,0,0,0-18.808-44.7,125.376,125.376,0,0,0-55-45.289,124.344,124.344,0,0,0-23.464-7.283,126.207,126.207,0,0,0-50.384,0,124.293,124.293,0,0,0-44.7,18.808,125.379,125.379,0,0,0-45.288,55,124.331,124.331,0,0,0-7.283,23.464A126.317,126.317,0,0,0,114.777,164Z" transform="translate(143 224)"/><path d="M762-671.164V-820.836a74.352,74.352,0,0,1,27.428,7.191,75.166,75.166,0,0,1,11.9,7.141,75.609,75.609,0,0,1,10.332,9.149A74.711,74.711,0,0,1,832-746a74.712,74.712,0,0,1-20.341,51.355,75.616,75.616,0,0,1-10.332,9.149,75.165,75.165,0,0,1-11.9,7.141A74.356,74.356,0,0,1,762-671.165Z" transform="translate(-265 1171)"/><path d="M0,0V149.671a74.352,74.352,0,0,0,27.428-7.191,75.166,75.166,0,0,0,11.9-7.141,75.6,75.6,0,0,0,10.332-9.149A74.711,74.711,0,0,0,70,74.836,74.712,74.712,0,0,0,49.658,23.481a75.616,75.616,0,0,0-10.332-9.149,75.165,75.165,0,0,0-11.9-7.141A74.356,74.356,0,0,0,0,0Z" transform="translate(267 499.835) rotate(180)"/><path d="M0,0H23V159.67H0Z" transform="translate(264 345)"/><path d="M0,0H23V159.67H0Z" transform="translate(477 345)"/></g></g></g></svg>