<svg xmlns="http://www.w3.org/2000/svg" width="369.999" height="327" viewBox="0 0 369.999 327"><g transform="translate(452 -94)"><g transform="translate(-649 -130)"><path d="M573-485a49.689,49.689,0,0,1-19.463-3.929,49.833,49.833,0,0,1-15.893-10.715,49.831,49.831,0,0,1-10.715-15.893A49.687,49.687,0,0,1,523-535a50.616,50.616,0,0,1,.486-7H523V-662a49.685,49.685,0,0,1,3.929-19.462,49.831,49.831,0,0,1,10.715-15.893,49.832,49.832,0,0,1,15.893-10.715A49.687,49.687,0,0,1,573-712a49.685,49.685,0,0,1,19.462,3.929,49.832,49.832,0,0,1,15.893,10.715,49.831,49.831,0,0,1,10.715,15.893A49.686,49.686,0,0,1,623-662v120h-.486a50.761,50.761,0,0,1,.486,7,49.688,49.688,0,0,1-3.929,19.462,49.832,49.832,0,0,1-10.715,15.893,49.833,49.833,0,0,1-15.893,10.715A49.687,49.687,0,0,1,573-485Zm.5-119.636h0l25.809,25.809,6.364-6.364L579.864-611l25.809-25.808-6.364-6.364L573.5-617.364,547.69-643.172l-6.364,6.364L567.136-611l-25.809,25.809,6.364,6.364L573.5-604.636Z" transform="translate(-191 1036)" fill="#fff"/><path d="M114.777,164H89.647c-.43-4.639-.647-9.349-.647-14a151.093,151.093,0,0,1,3.047-30.23,149.164,149.164,0,0,1,22.57-53.636,150.45,150.45,0,0,1,66-54.347,149.293,149.293,0,0,1,28.157-8.74,151.465,151.465,0,0,1,60.46,0,149.151,149.151,0,0,1,53.636,22.57,150.428,150.428,0,0,1,54.346,66,149.207,149.207,0,0,1,8.741,28.157A151.1,151.1,0,0,1,389,150c0,4.653-.218,9.363-.647,14H363.224a126.316,126.316,0,0,0-1.763-39.191,124.323,124.323,0,0,0-18.808-44.7,125.376,125.376,0,0,0-55-45.289,124.344,124.344,0,0,0-23.464-7.283,126.207,126.207,0,0,0-50.384,0,124.293,124.293,0,0,0-44.7,18.808,125.379,125.379,0,0,0-45.288,55,124.331,124.331,0,0,0-7.283,23.464A126.317,126.317,0,0,0,114.777,164Z" transform="translate(143 224)" fill="#fff"/><path d="M762-671.164V-820.836a74.352,74.352,0,0,1,27.428,7.191,75.166,75.166,0,0,1,11.9,7.141,75.609,75.609,0,0,1,10.332,9.149A74.711,74.711,0,0,1,832-746a74.712,74.712,0,0,1-20.341,51.355,75.616,75.616,0,0,1-10.332,9.149,75.165,75.165,0,0,1-11.9,7.141A74.356,74.356,0,0,1,762-671.165Z" transform="translate(-265 1171)" fill="#fff"/><path d="M0,0V149.671a74.352,74.352,0,0,0,27.428-7.191,75.166,75.166,0,0,0,11.9-7.141,75.6,75.6,0,0,0,10.332-9.149A74.711,74.711,0,0,0,70,74.836,74.712,74.712,0,0,0,49.658,23.481a75.616,75.616,0,0,0-10.332-9.149,75.165,75.165,0,0,0-11.9-7.141A74.356,74.356,0,0,0,0,0Z" transform="translate(267 499.835) rotate(180)" fill="#fff"/><path d="M0,0H23V159.67H0Z" transform="translate(264 345)" fill="#fff"/><path d="M0,0H23V159.67H0Z" transform="translate(477 345)" fill="#fff"/></g></g></svg>